<svg id="Capa_1" enable-background="new 0 0 497 497" height="512" viewBox="0 0 497 497" width="512" xmlns="http://www.w3.org/2000/svg"><g><path d="m32.434 0s-10 69.211-10 106.265c0 15.972 45 50.911 45 78.147 0 37.052-45 41.095-45 78.147s45 41.095 45 78.147-45 41.095-45 78.147 55 41.095 55 78.147h17.5l6.195-10 8.805 10h29.173c4.832 0 8.4-4.503 7.309-9.21-6.682-28.831-43.981-35.204-43.981-68.937 0-37.052 45-41.095 45-78.147s-45-41.095-45-78.147c0-16.979 9.45-27.026 19.689-36.494l-2.894-77.121s34.392 5.603 76.596 47.807l41.609 10.609v-199.86c0-4.142-3.358-7.5-7.5-7.5h-31l-7.5 10-7.5-10h-29l-7.5 10-7.5-10h-30l-7.5 10-7.5-10h-30l-6.893 10-8.108-10z" fill="#fff0af"/><path d="m147.434 184.412 48.391 12.338c-42.204-42.204-77.137-77.137-83.391-83.391-14.224-14.224-37.285-14.224-51.508 0-7.609 7.609-11.147 17.747-10.615 27.708-9.515-8.993-17.876-18.831-17.876-34.802 0-37.053 0-106.264 0-106.265h-12.5c-4.142 0-7.5 3.358-7.5 7.5v98.765c0 37.052 45 41.095 45 78.147s-45 41.095-45 78.147 45 41.095 45 78.147-45 41.095-45 78.147c0 34.829 39.762 40.491 44.533 71.82.555 3.646 3.714 6.327 7.402 6.327h13.064c0-37.052-45-41.095-45-78.147s45-41.095 45-78.147-45-41.095-45-78.147 45-41.095 45-78.147c0-1.077-.038-2.125-.112-3.148 4.082 4.082 21.723 21.723 44.801 44.801 12.104-11.195 25.311-21.58 25.311-41.653z" fill="#ffd064"/><path d="m94.934 497c0-15.218-9.295-23.707-20.058-33.535-11.691-10.677-24.942-22.778-24.942-44.612s13.251-33.935 24.942-44.612c10.763-9.829 20.058-18.317 20.058-33.536 0-15.218-9.295-23.707-20.058-33.535-11.691-10.677-24.942-22.778-24.942-44.612s13.251-33.935 24.942-44.612c10.763-9.829 20.058-18.317 20.058-33.535 0-15.219-9.295-23.707-20.058-33.536-11.691-10.677-24.942-22.778-24.942-44.611v-106.264h15v106.265c0 15.218 9.295 23.707 20.058 33.535 11.691 10.677 24.942 22.778 24.942 44.612 0 21.833-13.251 33.935-24.942 44.612-10.763 9.829-20.058 18.317-20.058 33.535s9.295 23.707 20.058 33.535c11.691 10.677 24.942 22.778 24.942 44.612s-13.251 33.935-24.942 44.612c-10.763 9.829-20.058 18.317-20.058 33.536s9.295 23.707 20.058 33.535c11.691 10.677 24.942 22.778 24.942 44.612h-15z" fill="#ffd064"/><path d="m84.991 139.8c-9.909-9.049-18.554-16.976-19.866-30.051-1.467 1.08-2.872 2.283-4.2 3.61-3.244 3.244-5.742 6.951-7.506 10.905 4.712 11.318 13.449 19.3 21.457 26.612 10.763 9.829 20.058 18.317 20.058 33.536 0 4.585-.856 8.551-2.329 12.135l11.202 11.202c3.695-6.431 6.127-13.99 6.127-23.337 0-21.834-13.251-33.935-24.943-44.612z" fill="#ebb044"/><g fill="#ffd064"><path d="m102.434 109.449c-4.143 0-7.5-3.358-7.5-7.5v-101.949h15v101.949c0 4.142-3.358 7.5-7.5 7.5z"/><path d="m147.434 139.449c-4.143 0-7.5-3.358-7.5-7.5v-131.949h15v131.949c0 4.142-3.358 7.5-7.5 7.5z"/><path d="m191.434 179.449c-4.143 0-7.5-3.358-7.5-7.5v-171.949h15v171.949c0 4.142-3.358 7.5-7.5 7.5z"/></g><path d="m475.78 436.705-121.673-121.673-41.508 41.508 116.673 116.673c8.982 8.982 36.348 9.336 48.94 6.057 4.013-6.139 6.355-13.47 6.355-21.352-.001-7.956-3.161-15.587-8.787-21.213z" fill="#d273b3"/><path d="m439.271 463.213-116.673-116.673-20 20 116.673 116.673c10.626 10.626 18.257 13.787 26.213 13.787 13.703 0 25.75-7.057 32.727-17.73-12.592 3.279-29.958-7.075-38.94-16.057z" fill="#ca59a6"/><path d="m322.598 356.54 30.295-42.722s-.624-.624-25.46-25.46-34.835-24.835-34.835-24.835l-86.843-86.843-13.322-23.322-60-60-41.508 31.508z" fill="#a9a4d3"/><path d="m235.925 299.867 65.46 65.46 20-20-220.46-220.46-20 20s4.685 4.685 20 20 31.508 22.633 31.508 22.633z" fill="#7f78bd"/><path d="m138.543 162.485 61.912 71.912 63.088 63.088c20.634-8.319 53.891-19.126 53.891-19.126s-19.64-19.783-29.696-29.697-15.873-9.421-15.873-9.421l-1.632-7.836s-17.545-17.933-27.496-27.743-16.098-8.649-16.098-8.649l-1.406-8.608-32.799-33.046c-10.906-10.906-33.258.807-53.891 9.126z" fill="#fff0af"/><path d="m317.434 278.359c-10.906-10.906-33.257.807-53.891 9.126 0 0-89.877-89.877-125-125-15.248 6.147-29.558 10.442-37.617 2.383 0 0 29.931 29.862 39.696 39.697s15.309 8.448 15.309 8.448l1.828 8.811s17.66 17.465 27.863 27.741 13.417 8.673 13.417 8.673l3.72 8.586 33.167 33.044c8.059 8.059 22.369 3.765 37.617-2.383 20.634-8.319 42.985-20.032 53.891-9.126z" fill="#ffd064"/><path d="m384.107 283.819c-5.857-5.857-15.354-5.858-21.212-.001l-71.51 71.51c-5.858 5.858-12.147 21.644-6.289 27.502s21.643-.431 27.501-6.288c26.264-26.264 69.215-69.215 71.509-71.509 5.859-5.859 5.859-15.356.001-21.214z" fill="#e2a5cf"/><path d="m291.385 376.54c-5.858-5.858-5.858-15.355 0-21.213l-20 20c-5.858 5.858-5.858 15.355 0 21.213s15.355 5.858 21.213 0l19.999-19.999c-5.857 5.857-15.354 5.857-21.212-.001z" fill="#d273b3"/><path d="m132.434 93.359c-14.224-14.224-37.285-14.224-51.508 0 0 0-10.567 31.508 20 31.508z" fill="#d273b3"/><path d="m80.925 93.359c-14.224 14.224-14.224 37.285 0 51.508l20-20c-14.223-14.223-20-31.508-20-31.508z" fill="#ca59a6"/><path d="m189.295 213.237c1.765-.729 3.53-1.47 5.289-2.209 14.824-6.228 38.028-17.494 48.153-7.366l-17.504-17.257c-11.047.118-23.886 5.512-36.458 10.793-3.299 1.386-7.013 3.021-10.905 4.614l1.659 7.5z" fill="#ffd064"/><path d="m189.295 213.237c-10.982 4.536-21.949 8.585-31.537 8.586l-17.137-17.259c7.867 7.87 23.648 2.814 37.249-2.752z" fill="#ebb044"/><path d="m234.295 258.237c1.765-.729 3.53-1.47 5.289-2.209 14.824-6.228 38.028-17.494 48.153-7.366l-17.504-17.257c-11.047.118-23.886 5.512-36.458 10.793-3.299 1.386-7.013 3.021-10.905 4.614l1.659 7.5z" fill="#ffd064"/><path d="m234.295 258.237c-10.982 4.536-21.949 8.585-31.537 8.586l-17.137-17.259c7.867 7.87 23.648 2.814 37.249-2.752z" fill="#ebb044"/><path d="m373.029 392.963c-1.919 0-3.839-.732-5.304-2.197l-13.677-13.677c-2.929-2.929-2.929-7.678 0-10.606 2.93-2.929 7.678-2.929 10.607 0l13.677 13.677c2.929 2.929 2.929 7.678 0 10.606-1.464 1.465-3.384 2.197-5.303 2.197z" fill="#f3f1f4"/></g></svg>