<svg id="Layer_1" height="512" viewBox="0 0 512 512" width="512" xmlns="http://www.w3.org/2000/svg" data-name="Layer 1"><path fill="#fff" d="m196.566 371.289-80.61 80.611a30.5 30.5 0 0 1 -43.134-43.133l35.518-35.518a21.582 21.582 0 0 0 26.671-2.349l13.966-14.792a45.166 45.166 0 0 1 -30.108-33.09l-14.64 15.147q-.07.073-.144.144a21.577 21.577 0 0 0 -2.856 27.908l-35.478 35.483a40.5 40.5 0 0 0 57.276 57.276l80.61-80.61a23.5 23.5 0 1 1 33.234 33.234l-73.185 73.18a5 5 0 0 0 7.071 7.072l73.185-73.186a33.5 33.5 0 1 0 -47.376-47.377z"/><path fill="#fff" d="m258.147 38.514-114.162 233.44a45.025 45.025 0 0 1 33.827-1.79c.312.107.617.226.925.339l121.871-249.171c-16.124-6.979-34.16.209-42.461 17.182z"/><path fill="#fff" d="m272.912 234.833q.1.209.184.424l5.865 15.463 154.348-75.7-6.053-15.956c-3.214-6.309-10.761-8.531-17.648-5.162l-130.035 63.636c-6.956 3.404-9.82 10.839-6.661 17.295z"/><path fill="#fff" d="m165.924 304.838a8.694 8.694 0 1 0 5.675 10.076 8.7 8.7 0 0 0 -5.675-10.076z"/><path fill="#fff" d="m311.913 41.753-8.613-3.172-74.787 152.919 7.821 4.693c6.414 3.019 13.745.143 17.117-6.75l63.607-130.052a14.208 14.208 0 0 0 1.027-10.343 11.9 11.9 0 0 0 -6.172-7.295z"/><path fill="#fff" d="m201.551 299.823a5 5 0 0 1 -6.725-2.359 35.327 35.327 0 0 0 -62.212-2.257l-.919 1.877a4.911 4.911 0 0 1 -.472.764 35.328 35.328 0 0 0 47.419 46.966l259.63-127.051a35.336 35.336 0 0 0 17.772-18.875 30.951 30.951 0 0 0 -.6-23.586zm-20.183 17.231a18.7 18.7 0 1 1 -1.472-12.209 18.6 18.6 0 0 1 1.472 12.209zm215.7-89-70.891 34.69a5 5 0 1 1 -4.395-8.982l70.89-34.691a5 5 0 0 1 4.4 8.983zm27.309-13.354-13.915 6.809a5 5 0 0 1 -4.4-8.983l13.915-6.809a5 5 0 0 1 4.4 8.983z"/></svg>