<svg id="Capa_1" enable-background="new 0 0 511.679 511.679" height="512" viewBox="0 0 511.679 511.679" width="512" xmlns="http://www.w3.org/2000/svg"><g><g><path d="m356.094 65.762s26.282 51.577 29.709 104.841c.456 7.084-2.114 14.034-7.047 19.139-8.678 8.98-24.6 24.434-45.76 40.615-16.41 12.549-16.41 37.386 0 49.936 21.16 16.181 37.081 31.635 45.76 40.615 4.933 5.104 7.503 12.055 7.047 19.139-3.427 53.264-29.709 104.841-29.709 104.841h-200.506s-26.282-51.577-29.709-104.841c-.456-7.084 2.114-14.034 7.047-19.139 8.678-8.98 24.6-24.434 45.76-40.615 16.411-12.549 16.411-37.386 0-49.936-21.16-16.181-37.081-31.635-45.76-40.615-4.933-5.104-7.503-12.055-7.047-19.139 3.427-53.264 29.709-104.841 29.709-104.841z" fill="#d3effb"/><path d="m223.218 280.664c-13.927 25.547-22.482 49.314-22.482 49.314 0 50.435 9.675 102.469 12.147 114.913h-57.292s-26.287-51.58-29.713-104.851c-.456-7.083 2.114-14.033 7.046-19.138 8.677-8.98 24.598-24.435 45.759-40.619 16.416-12.543 16.416-37.381 0-49.924-21.161-16.183-37.082-31.638-45.759-40.619-4.932-5.104-7.501-12.054-7.046-19.137 3.427-53.271 29.713-104.851 29.713-104.851h57.292c-2.472 12.444-12.147 64.478-12.147 114.913 0 0 8.554 23.768 22.482 49.315 6.939 12.742 6.939 37.943 0 50.684z" fill="#9dc6fb"/><path d="m338.352 137.726c4.115 17.014-1.663 34.888-14.887 46.356-4.835 4.193-10.27 8.674-16.211 13.216-7.136 5.452-12.64 12.422-16.226 20.291-6.237 13.696-20.134 22.279-35.19 22.279-15.048 0-28.953-8.584-35.19-22.279-3.577-7.868-9.09-14.838-16.217-20.291-5.938-4.54-11.371-9.019-16.205-13.21-13.22-11.462-18.998-29.324-14.897-46.334.284-1.179.577-2.349.875-3.509h163.275c.299 1.151.59 2.311.873 3.481z" fill="#f6e266"/><path d="m255.837 239.869c-15.05 0-28.95-8.58-35.19-22.28-3.58-7.87-9.09-14.84-16.22-20.29-5.93-4.54-11.37-9.02-16.2-13.21-13.22-11.46-19-29.32-14.9-46.33.29-1.18.58-2.35.88-3.51h46.34c-.13 1.16-.26 2.33-.38 3.51-1.77 17.01.72 34.87 6.44 46.33 2.09 4.19 4.44 8.67 7.01 13.21 3.08 5.45 5.46 12.42 7.01 20.29 2.7 13.7 8.71 22.28 15.21 22.28z" fill="#ffd064"/><g><path d="m329.167 418.516c0-47.544-37.689-86.535-59.026-104.8-8.224-7.04-20.376-7.04-28.601 0-21.337 18.265-59.026 57.256-59.026 104.8" fill="#f6e266"/><path d="m241.538 313.707c3.082-2.653 6.741-4.302 10.532-4.945-.445.692-.857 1.516-1.253 2.472-7.45 18.163-20.603 60.078-20.751 107.282h-47.551c0-47.55 37.679-86.547 59.023-104.809z" fill="#ffd064"/></g><path d="m373.873 418.516h-236.064c-16.61 0-30.076 13.465-30.076 30.076v25.514c0 16.611 13.465 30.076 30.076 30.076h236.065c16.611 0 30.076-13.465 30.076-30.076v-25.514c-.001-16.61-13.466-30.076-30.077-30.076z" fill="#9d6b6b"/><path d="m373.873 7.5h-236.064c-16.61 0-30.076 13.465-30.076 30.076v25.514c0 16.61 13.465 30.076 30.076 30.076h236.065c16.611 0 30.076-13.465 30.076-30.076v-25.514c-.001-16.611-13.466-30.076-30.077-30.076z" fill="#9d6b6b"/><g fill="#8b5e5e"><path d="m190.556 93.154h-52.743c-16.614 0-30.08-13.466-30.08-30.063v-25.515c0-16.614 13.466-30.08 30.08-30.08h52.743c-16.614 0-30.08 13.466-30.08 30.08v25.514c0 16.598 13.466 30.064 30.08 30.064z"/><path d="m190.552 504.174h-52.743c-16.614 0-30.08-13.466-30.08-30.063v-25.514c0-16.614 13.466-30.08 30.08-30.08h52.743c-16.614 0-30.08 13.466-30.08 30.08v25.514c0 16.597 13.466 30.063 30.08 30.063z"/></g></g><g><path d="m297.853 220.699c3.1-6.804 7.926-12.834 13.957-17.442 5.566-4.256 11.141-8.801 16.569-13.508 15.434-13.386 22.048-33.995 17.263-53.785 0-.001 0-.001 0-.002-.292-1.208-.593-2.406-.9-3.593-.856-3.31-3.842-5.622-7.261-5.622h-163.276c-3.42 0-6.407 2.314-7.262 5.625-.31 1.198-.611 2.407-.905 3.625-4.77 19.785 1.849 40.385 17.275 53.759 5.421 4.701 10.994 9.243 16.561 13.5 6.038 4.619 10.86 10.648 13.948 17.442 7.379 16.202 23.871 26.671 42.016 26.671s34.637-10.469 42.015-26.67zm-42.014 11.669c-12.282 0-23.416-7.021-28.362-17.882-4.103-9.027-10.496-17.031-18.489-23.146-5.325-4.072-10.657-8.418-15.847-12.918-10.593-9.184-15.455-23.062-12.99-36.677h151.39c2.464 13.609-2.396 27.484-12.988 36.67-5.196 4.506-10.53 8.854-15.851 12.923-7.982 6.099-14.378 14.1-18.498 23.142-4.95 10.867-16.083 17.888-28.365 17.888z"/><path d="m411.45 63.09v-25.514c0-20.72-16.857-37.576-37.577-37.576h-236.064c-20.72 0-37.576 16.856-37.576 37.576v25.514c0 19.195 14.471 35.064 33.074 37.297-6.489 18.985-13.269 44.129-14.912 69.727-.595 9.172 2.739 18.228 9.141 24.837 4.308 4.458 8.966 9.038 13.845 13.611 1.447 1.356 3.289 2.028 5.127 2.028 2.001 0 3.998-.796 5.474-2.371 2.833-3.022 2.679-7.769-.343-10.601-4.699-4.404-9.179-8.808-13.322-13.096-3.469-3.582-5.274-8.479-4.952-13.442 1.676-26.122 9.131-51.949 15.741-70.413h213.471c6.609 18.458 14.063 44.281 15.742 70.422.323 4.957-1.479 9.853-4.945 13.435-9.345 9.664-24.727 24.429-44.935 39.884-9.688 7.409-15.244 18.679-15.244 30.919 0 12.241 5.556 23.511 15.244 30.92 20.135 15.399 35.552 30.183 44.928 39.861 3.47 3.598 5.275 8.503 4.952 13.465-1.702 26.481-9.347 52.709-16.119 71.447h-25.843c-3.56-46.749-39.472-84.283-61.337-103.001-11.112-9.512-27.243-9.512-38.355 0-21.865 18.718-57.777 56.252-61.337 103.001h-25.843c-6.769-18.729-14.413-44.95-16.119-71.457-.322-4.956 1.485-9.858 4.955-13.448 9.34-9.652 24.716-24.404 44.926-39.867 9.688-7.408 15.244-18.677 15.244-30.918s-5.556-23.51-15.249-30.921c-3.117-2.38-6.292-4.884-9.435-7.444-3.212-2.616-7.936-2.132-10.551 1.08-2.616 3.211-2.132 7.936 1.08 10.551 3.264 2.659 6.563 5.261 9.8 7.732 5.946 4.546 9.355 11.472 9.355 19.002s-3.41 14.457-9.357 19.004c-20.945 16.026-36.898 31.333-46.595 41.354-6.405 6.625-9.737 15.683-9.142 24.845 1.671 25.961 8.616 51.471 15.259 70.723-18.773 2.075-33.424 18.023-33.424 37.335v25.52c0 20.716 16.858 37.57 37.58 37.57h181.76c4.142 0 7.5-3.358 7.5-7.5s-3.358-7.5-7.5-7.5h-181.76c-12.451 0-22.58-10.125-22.58-22.57v-25.52c0-12.445 10.129-22.57 22.58-22.57h236.06c12.451 0 22.58 10.125 22.58 22.57v25.52c0 12.445-10.129 22.57-22.58 22.57h-24.3c-4.142 0-7.5 3.358-7.5 7.5s3.358 7.5 7.5 7.5h24.3c20.722 0 37.58-16.854 37.58-37.57v-25.52c0-19.311-14.65-35.258-33.421-37.334 6.645-19.261 13.592-44.777 15.259-70.714.596-9.16-2.729-18.216-9.136-24.858-9.742-10.055-25.734-25.391-46.601-41.351-5.946-4.547-9.356-11.475-9.356-19.005s3.41-14.457 9.356-19.004c20.945-16.019 36.905-31.34 46.604-41.371 6.4-6.615 9.729-15.668 9.132-24.832-1.645-25.612-8.425-50.753-14.912-69.733 18.602-2.235 33.073-18.104 33.073-37.299zm-165.032 256.324c5.46-4.674 13.387-4.674 18.846 0 19.862 17.003 52.4 50.741 56.053 91.605h-130.952c3.653-40.864 36.191-74.603 56.053-91.605zm150.032-256.324c0 12.448-10.127 22.576-22.576 22.576h-236.065c-12.449 0-22.576-10.127-22.576-22.576v-25.514c0-12.449 10.127-22.576 22.576-22.576h236.064c12.449 0 22.576 10.127 22.576 22.576v25.514z"/><path d="m257.701 265.109v-.5c0-4.142-3.358-7.5-7.5-7.5s-7.5 3.358-7.5 7.5v.5c0 4.142 3.358 7.5 7.5 7.5s7.5-3.358 7.5-7.5z"/><path d="m260.948 280.785v.5c0 4.142 3.358 7.5 7.5 7.5s7.5-3.358 7.5-7.5v-.5c0-4.142-3.358-7.5-7.5-7.5s-7.5 3.358-7.5 7.5z"/><path d="m286.827 380.809c-4.142 0-7.5 3.358-7.5 7.5v.5c0 4.142 3.358 7.5 7.5 7.5s7.5-3.358 7.5-7.5v-.5c0-4.142-3.358-7.5-7.5-7.5z"/><path d="m282.554 368.889v-.5c0-4.142-3.358-7.5-7.5-7.5s-7.5 3.358-7.5 7.5v.5c0 4.142 3.358 7.5 7.5 7.5s7.5-3.358 7.5-7.5z"/><path d="m263.635 380.559c-4.142 0-7.5 3.358-7.5 7.5v.5c0 4.142 3.358 7.5 7.5 7.5s7.5-3.358 7.5-7.5v-.5c0-4.142-3.358-7.5-7.5-7.5z"/><path d="m212.176 159.254v-.5c0-4.142-3.358-7.5-7.5-7.5s-7.5 3.358-7.5 7.5v.5c0 4.142 3.358 7.5 7.5 7.5s7.5-3.358 7.5-7.5z"/><path d="m216.449 171.174c-4.142 0-7.5 3.358-7.5 7.5v.5c0 4.142 3.358 7.5 7.5 7.5s7.5-3.358 7.5-7.5v-.5c0-4.143-3.358-7.5-7.5-7.5z"/><path d="m227.868 151.504c-4.142 0-7.5 3.358-7.5 7.5v.5c0 4.142 3.358 7.5 7.5 7.5s7.5-3.358 7.5-7.5v-.5c0-4.142-3.358-7.5-7.5-7.5z"/><path d="m235.201 288.397v.5c0 4.142 3.358 7.5 7.5 7.5s7.5-3.358 7.5-7.5v-.5c0-4.142-3.358-7.5-7.5-7.5s-7.5 3.358-7.5 7.5z"/></g></g></svg>