<svg height="512" viewBox="0 0 192 192" width="512" xmlns="http://www.w3.org/2000/svg" xmlns:xlink="http://www.w3.org/1999/xlink"><linearGradient id="New_Gradient_Swatch_1" gradientUnits="userSpaceOnUse" x1="50.294" x2="99.313" y1="99.313" y2="50.294"><stop offset="0" stop-color="#34cdfa"/><stop offset="1" stop-color="#e8d9f1"/></linearGradient><linearGradient id="New_Gradient_Swatch_1-2" x1="65.45" x2="122.006" xlink:href="#New_Gradient_Swatch_1" y1="122.006" y2="65.45"/><linearGradient id="New_Gradient_Swatch_1-3" x1="91.822" x2="141.745" xlink:href="#New_Gradient_Swatch_1" y1="141.745" y2="91.822"/><rect fill="#99e6fd" height="192" rx="8" width="160" x="16"/><path d="m40 184v-176a8 8 0 0 1 8-8h-24a8 8 0 0 0 -8 8v176a8 8 0 0 0 8 8h24a8 8 0 0 1 -8-8z" fill="#67d9fb"/><path d="m16 168v16a8 8 0 0 0 8 8h144a8 8 0 0 0 8-8v-16z" fill="#34cdfa"/><path d="m40 184v-16h-24v16a8 8 0 0 0 8 8h24a8 8 0 0 1 -8-8z" fill="#01c0f9"/><circle cx="96" cy="96" fill="#fff" r="40"/><path d="m96 56a39.98 39.98 0 0 0 -38.618 50.4l49.018-49.018a39.905 39.905 0 0 0 -10.4-1.382z" fill="url(#New_Gradient_Swatch_1)"/><path d="m109.1 58.206-50.894 50.894a40.123 40.123 0 0 0 18.412 21.892l54.373-54.373a40.123 40.123 0 0 0 -21.891-18.413z" fill="url(#New_Gradient_Swatch_1-2)"/><path d="m134.244 84.321-49.923 49.923a39.963 39.963 0 0 0 49.923-49.923z" fill="url(#New_Gradient_Swatch_1-3)"/><g fill="#01c0f9"><circle cx="80" cy="24" r="8"/><circle cx="48" cy="24" r="8"/><path d="m120 16h32v16h-32z"/></g><path d="m96 48a48 48 0 1 0 48 48 48.054 48.054 0 0 0 -48-48zm-32 48a31.975 31.975 0 0 1 51.994-24.958 31.964 31.964 0 0 0 0 49.916 31.975 31.975 0 0 1 -51.994-24.958z" fill="#e6f9fe"/></svg>