<svg id="Capa_1" enable-background="new 0 0 512 512" height="512" viewBox="0 0 512 512" width="512" xmlns="http://www.w3.org/2000/svg"><g><path fill="#fff"  d="m181.522 58.599c96.946-24.602 199.317.453 273.851 67.021 2.456 2.194 3.46 5.536 2.618 8.719l-12.496 47.277c-1.044 3.95 1.311 7.999 5.262 9.043.633.168 1.27.248 1.895.248 3.276 0 6.271-2.192 7.147-5.509l12.496-47.278c2.272-8.595-.436-17.613-7.067-23.535-78.208-69.85-185.628-96.14-287.345-70.327-3.96 1.005-6.356 5.03-5.351 8.99 1.005 3.961 5.035 6.357 8.99 5.351z"/><path fill="#fff"  d="m352.256 161.635 14.435-54.611c1.851-7.005-1.836-14.299-8.577-16.968-32.75-12.966-67.268-19.54-102.595-19.54s-69.845 6.574-102.595 19.54c-6.741 2.668-10.428 9.963-8.577 16.969l14.435 54.609c1.568 5.936 6.952 10.081 13.091 10.081h120.813c-2.754 4.03-2.351 9.587 1.223 13.163l14.917 14.916c1.956 1.955 4.557 3.033 7.323 3.033 2.767 0 5.368-1.078 7.323-3.033l14.918-14.918c3.579-3.579 3.977-9.147 1.209-13.179 5.957-.192 11.126-4.269 12.657-10.062zm-193.495-57.977c62.414-24.597 131.102-24.597 193.515 0l-14.078 53.262h-13.119l-1.608-1.608c-4.038-4.036-10.607-4.035-14.645.001 0 0-1.498 1.666-1.439 1.607h-42.051l-13.495-37.538c-1.227-3.416-3.355-6.442-6.155-8.753l-19.47-16.076c-2.539-2.097-6.04-2.707-9.136-1.592-3.097 1.114-5.408 3.813-6.03 7.044l-4.779 24.795c-.686 3.563-.4 7.251.827 10.665l7.713 21.454h-41.971zm71.773 53.262-9.513-26.459c-.329-.916-.406-1.906-.222-2.862l3.048-15.815 12.42 10.254c.751.62 1.322 1.431 1.651 2.347v.001l11.696 32.534zm85.616 29.273-8.639-8.639 8.639-8.639 8.639 8.639z"/><circle fill="#fff"  cx="255.519" cy="98.994" r="7.768"/><circle fill="#fff" cx="292.955" cy="101.4" r="7.768"/><circle fill="#fff" cx="329.127" cy="110.389" r="7.768"/><circle fill="#fff" cx="181.912" cy="110.389" r="7.768"/><path fill="#fff"  d="m201.891 226.334c0 11.445 9.312 20.757 20.757 20.757s20.757-9.312 20.757-20.757c0-11.446-9.312-20.758-20.757-20.758s-20.757 9.312-20.757 20.758zm26.719 0c0 3.288-2.674 5.962-5.962 5.962s-5.962-2.674-5.962-5.962 2.674-5.963 5.962-5.963 5.962 2.676 5.962 5.963z"/><path fill="#fff"  d="m481.212 258.605c-11.446 0-20.758 9.312-20.758 20.758 0 11.445 9.312 20.757 20.758 20.757s20.758-9.312 20.758-20.757c-.001-11.446-9.312-20.758-20.758-20.758zm0 26.719c-3.288 0-5.962-2.674-5.962-5.962s2.674-5.962 5.962-5.962 5.962 2.675 5.962 5.962c0 3.288-2.675 5.962-5.962 5.962z"/><path fill="#fff"  d="m408.861 298.858c0-11.446-9.312-20.758-20.758-20.758s-20.757 9.312-20.757 20.758c0 11.445 9.312 20.757 20.757 20.757 11.446 0 20.758-9.312 20.758-20.757zm-26.72 0c0-3.288 2.674-5.962 5.962-5.962s5.962 2.675 5.962 5.962-2.674 5.962-5.962 5.962c-3.287 0-5.962-2.674-5.962-5.962z"/><path fill="#fff"  d="m491.243 152.281c-11.446 0-20.758 9.312-20.758 20.757 0 11.446 9.312 20.758 20.758 20.758s20.757-9.312 20.757-20.758-9.312-20.757-20.757-20.757zm0 26.719c-3.288 0-5.962-2.675-5.962-5.962s2.674-5.962 5.962-5.962 5.962 2.674 5.962 5.962-2.675 5.962-5.962 5.962z"/><path fill="#fff"  d="m464.546 298.111h-21.096c-5.711 0-10.357 4.646-10.357 10.357v21.095c0 5.711 4.646 10.357 10.357 10.357h21.096c5.711 0 10.357-4.646 10.357-10.357v-21.095c-.001-5.712-4.647-10.357-10.357-10.357zm-4.439 27.013h-12.218v-12.218h12.218z"/><path fill="#fff"  d="m325.521 271.017c-2.767 0-5.368 1.078-7.323 3.033l-14.918 14.919c-1.955 1.955-3.032 4.556-3.032 7.322 0 2.767 1.077 5.368 3.033 7.324l14.916 14.915.001.002c1.956 1.956 4.557 3.033 7.323 3.033s5.367-1.077 7.324-3.033l14.914-14.915c1.957-1.956 3.036-4.558 3.036-7.325 0-2.766-1.077-5.367-3.034-7.324l-14.916-14.917c-1.957-1.957-4.558-3.034-7.324-3.034zm0 33.913-8.639-8.639 8.639-8.639 8.639 8.639z"/><path fill="#fff"  d="m469.811 231.657c3.121 2.634 7.789 2.239 10.425-.881 2.635-3.122 2.241-7.789-.881-10.425-12.398-10.466-29.52-13.423-44.684-7.721-10.916 4.105-19.607 12.082-24.617 22.552-10.667-4.572-22.461-4.848-33.378-.741-11.387 4.283-20.352 12.777-25.244 23.918-1.642 3.741.059 8.106 3.8 9.748 3.651 1.629 8.103-.02 9.748-3.799 3.276-7.462 9.28-13.151 16.905-16.019s15.89-2.545 23.271.908c3.273 1.532 6.939 1.674 10.322.405 3.381-1.272 6.044-3.795 7.497-7.105 2.141-4.877 5.454-8.99 9.617-12.06l-43.212 163.484c-.263.996-1.167 1.691-2.197 1.691h-185.823l75.439-33.824c4.293-1.925 7.364-5.836 8.215-10.463.851-4.626-.627-9.374-3.953-12.701l-26.999-26.999c5.499-4.649 12.396-7.119 19.692-7.066 3.59.059 7.011-1.34 9.566-3.894s3.938-5.952 3.895-9.567c-.098-8.148 3.021-15.808 8.781-21.569 5.76-5.76 13.431-8.872 21.568-8.783 3.632.055 7.013-1.338 9.568-3.892 2.555-2.555 3.938-5.953 3.895-9.568-.097-8.149 3.021-15.809 8.782-21.569 5.761-5.761 13.44-8.853 21.57-8.783 3.597.084 7.011-1.34 9.566-3.894 2.555-2.555 3.937-5.951 3.894-9.566-.098-8.149 3.021-15.809 8.781-21.569 7.673-7.672 18.937-10.601 29.399-7.644 3.929 1.114 8.02-1.174 9.131-5.106 1.111-3.931-1.175-8.02-5.107-9.131-15.612-4.417-32.429-.039-43.886 11.418-8.247 8.247-12.868 19.102-13.107 30.704-11.602.24-22.458 4.862-30.705 13.108s-12.868 19.1-13.108 30.704c-11.604.241-22.458 4.861-30.705 13.109s-12.868 19.102-13.107 30.704c-10.755.222-20.864 4.216-28.853 11.365l-14.239-14.239 1.002-1.669c4.444-6.827 11.293-11.464 19.285-13.054 3.546-.705 6.584-2.761 8.555-5.788s2.622-6.638 1.832-10.167c-1.782-7.952-.315-16.092 4.129-22.919 4.445-6.828 11.294-11.465 19.286-13.055 4.007-.797 6.609-4.692 5.812-8.699-.798-4.006-4.691-6.612-8.699-5.811-11.934 2.374-22.161 9.297-28.799 19.494-6.362 9.775-8.638 21.35-6.472 32.751-10.917 2.545-20.294 8.954-26.654 18.194l-79.767-79.767c-6.675-7.054-19.412-4.72-23.164 4.262l-28.374 63.283-34.258-129.612c-.841-3.184.162-6.526 2.619-8.72 27.788-24.818 59.443-44.013 94.088-57.048 3.824-1.439 5.757-5.705 4.319-9.529s-5.708-5.756-9.529-4.318c-36.36 13.681-69.579 33.822-98.734 59.861-6.631 5.922-9.338 14.941-7.066 23.536l38.935 147.305-76.3 170.175c-2.656 5.923-1.406 12.716 3.184 17.306 4.61 4.62 11.454 5.82 17.305 3.184l146.543-65.705 218.773.022c7.738 0 14.524-5.226 16.501-12.706l45.757-173.115c7.314-.238 14.603 2.2 20.369 7.069zm-344.281 181.74v-92.806c0-4.086-3.312-7.398-7.398-7.398s-7.398 3.312-7.398 7.398v99.44l-24.283 10.888v-128.897l24.283-54.159v37.867c0 4.086 3.312 7.398 7.398 7.398s7.398-3.312 7.398-7.398v-70.866l3.358-7.489 18.157 18.157v178.218zm-75.388 33.801v-64.193l21.515-47.985v102.531zm111.699-206.87 23.589 23.589v122.623l-23.589 10.576zm59.899 59.899v70.033l-.543.244-20.971 9.403v-101.195zm14.795 63.399v-48.604l33.558 33.557zm-220.721 98.964c-.415.4-1.335-.519-.935-.935l20.468-45.65v37.828z"/></g></svg>