<svg xmlns="http://www.w3.org/2000/svg" viewBox="0 0 250 250"><defs><style>.cls-1{isolation:isolate;}.cls-2{fill:#f9e64a;}.cls-3{opacity:0.25;mix-blend-mode:multiply;}.cls-4{fill:#fff;}</style></defs><g class="cls-1"><g id="Layer_3" data-name="Layer 3"><circle class="cls-2" cx="125" cy="125" r="110.96"/></g><g id="Layer_2" data-name="Layer 2"><g class="cls-3"><path d="M116.3,81.28h26.86a1.23,1.23,0,0,1,1.19.88l21.88,70.77a1.25,1.25,0,0,0,2.37,0l24.22-70.84a1.24,1.24,0,0,1,1.18-.84h19.28a1.26,1.26,0,0,0,1.07-1.9A98,98,0,0,0,42,86a1.25,1.25,0,0,0,1.93,1.5C49.05,83.21,56.53,80,66.44,80a68.48,68.48,0,0,1,29.92,6.85,1.24,1.24,0,0,1,.58,1.6L90.76,103a1.25,1.25,0,0,1-1.66.65C70.87,95.55,56,96.06,56,108.53c0,12.73,26.63,14.79,37,27.38s6.16,46-25.48,46a146.6,146.6,0,0,1-18.35-1A1.26,1.26,0,0,0,48,182.83a98,98,0,0,0,65.61,42.89,1.24,1.24,0,0,0,1.45-1.23v-142A1.24,1.24,0,0,1,116.3,81.28Z"/><path d="M198.33,112l-20.84,67.24a1.24,1.24,0,0,1-1.19.87H157.89a1.25,1.25,0,0,1-1.2-.89L138,116.66a1.25,1.25,0,0,0-2.45.36V225.59a1.26,1.26,0,0,0,1.34,1.25,97.61,97.61,0,0,0,63.49-29.68,1.23,1.23,0,0,0,.35-.87v-83.9A1.25,1.25,0,0,0,198.33,112Z"/><path d="M76.71,155.22c0-11.5-14.38-15.06-29.44-23.41-7-3.9-10.6-9.29-12.14-14.82a1.25,1.25,0,0,0-2.44.19A100.21,100.21,0,0,0,32,129.12,98,98,0,0,0,35.7,156a1.31,1.31,0,0,0,.67.79C59.2,167.82,76.71,164,76.71,155.22Z"/></g><path class="cls-4" d="M112.3,77.28h26.86a1.23,1.23,0,0,1,1.19.88l21.88,70.77a1.25,1.25,0,0,0,2.37,0l24.22-70.84a1.24,1.24,0,0,1,1.18-.84h19.28a1.26,1.26,0,0,0,1.07-1.9A98,98,0,0,0,38,82a1.25,1.25,0,0,0,1.93,1.5C45.05,79.21,52.53,76,62.44,76a68.48,68.48,0,0,1,29.92,6.85,1.24,1.24,0,0,1,.58,1.6L86.76,99a1.25,1.25,0,0,1-1.66.65C66.87,91.55,52,92.06,52,104.53c0,12.73,26.63,14.79,37,27.38s6.16,46-25.48,46a146.6,146.6,0,0,1-18.35-1A1.26,1.26,0,0,0,44,178.83a98,98,0,0,0,65.61,42.89,1.24,1.24,0,0,0,1.45-1.23v-142A1.24,1.24,0,0,1,112.3,77.28Z"/><path class="cls-4" d="M194.33,108l-20.84,67.24a1.24,1.24,0,0,1-1.19.87H153.89a1.25,1.25,0,0,1-1.2-.89L134,112.66a1.25,1.25,0,0,0-2.45.36V221.59a1.26,1.26,0,0,0,1.34,1.25,97.61,97.61,0,0,0,63.49-29.68,1.23,1.23,0,0,0,.35-.87v-83.9A1.25,1.25,0,0,0,194.33,108Z"/><path class="cls-4" d="M72.71,151.22c0-11.5-14.38-15.06-29.44-23.41-7-3.9-10.6-9.29-12.14-14.82a1.25,1.25,0,0,0-2.44.19A100.21,100.21,0,0,0,28,125.12,98,98,0,0,0,31.7,152a1.31,1.31,0,0,0,.67.79C55.2,163.82,72.71,160,72.71,151.22Z"/></g></g></svg>