<svg xmlns="http://www.w3.org/2000/svg" viewBox="0 0 888 255"><defs><style>.cls-1{isolation:isolate;}.cls-2{fill:#333;}</style></defs><g id="Layer_1" data-name="Layer 1"><g id="Shopping_market" data-name="Shopping market" class="cls-1"><g class="cls-1"><path class="cls-2" d="M356.77,65.88Q356.77,95,328.22,95H303.06a12.77,12.77,0,0,1-5.47-1.1A12.12,12.12,0,0,1,293.67,91a11.78,11.78,0,0,1-2.34-4,14.56,14.56,0,0,1-.78-4.75,14.08,14.08,0,0,1,.78-4.61,11.23,11.23,0,0,1,2.4-4,12.5,12.5,0,0,1,4-2.86,13,13,0,0,1,5.53-1.11h26.28a4.73,4.73,0,0,0,3.84-1.49A4.94,4.94,0,0,0,334.65,65a5.36,5.36,0,0,0-1.23-3.38A4.62,4.62,0,0,0,329.58,60h-13q-13.41,0-20.17-6.55t-6.77-20.55q0-29.31,28.76-29.31h20.3a13.87,13.87,0,0,1,5.72,1.1,13,13,0,0,1,4.16,2.84,11.44,11.44,0,0,1,2.54,4,13.12,13.12,0,0,1,.85,4.59,13.68,13.68,0,0,1-.85,4.66A12,12,0,0,1,348.57,25a12.45,12.45,0,0,1-4.22,2.91A14.55,14.55,0,0,1,338.56,29H316.7a4.51,4.51,0,0,0-3.78,1.5,5.25,5.25,0,0,0-1.17,3.31A5,5,0,0,0,312.93,37a4.5,4.5,0,0,0,3.78,1.49h13.05q13.69,0,20.36,6.63T356.77,65.88Z"/><path class="cls-2" d="M437.05,82.91q0,6.24-3.77,9.42a13.45,13.45,0,0,1-9,3.19,13,13,0,0,1-8.78-3.19q-3.72-3.18-3.71-9.42V61.2H391.25V82.91q0,6.24-3.77,9.42a13.45,13.45,0,0,1-9,3.19,13,13,0,0,1-8.78-3.19Q366,89.15,366,82.91V15.58q0-6,3.71-9.23A12.87,12.87,0,0,1,378.5,3.1a13.3,13.3,0,0,1,9,3.25q3.76,3.24,3.77,9.23V37.41h20.56V15.58q0-6,3.71-9.23A12.87,12.87,0,0,1,424.3,3.1a13.3,13.3,0,0,1,9,3.25q3.77,3.24,3.77,9.23Z"/><path class="cls-2" d="M446,49.24A45.64,45.64,0,0,1,449.66,31,47.07,47.07,0,0,1,474.48,6.22a47.42,47.42,0,0,1,36.44,0,45.9,45.9,0,0,1,14.82,10,48.54,48.54,0,0,1,10,14.81,44.85,44.85,0,0,1,3.71,18.2,44.81,44.81,0,0,1-3.71,18.2,48.47,48.47,0,0,1-10,14.82,46.24,46.24,0,0,1-33.07,13.65,45.39,45.39,0,0,1-18.19-3.64,47,47,0,0,1-24.82-24.83A45.6,45.6,0,0,1,446,49.24Zm25.63.33a20.07,20.07,0,0,0,1.69,8.23,21.52,21.52,0,0,0,4.55,6.67,21.58,21.58,0,0,0,23.23,4.47,21.65,21.65,0,0,0,6.76-4.47,21.21,21.21,0,0,0,4.62-6.67,20.07,20.07,0,0,0,1.69-8.23,20.57,20.57,0,0,0-1.69-8.3,21,21,0,0,0-4.62-6.73A22.56,22.56,0,0,0,501.13,30a21.06,21.06,0,0,0-16.53,0,21.8,21.8,0,0,0-6.7,4.54,21.33,21.33,0,0,0-4.55,6.73A20.57,20.57,0,0,0,471.66,49.57Z"/><path class="cls-2" d="M573.79,82.52q0,13-12.55,13T548.55,82.78V16.23q0-12.75,12.23-12.74h25.76a43.78,43.78,0,0,1,14.25,2.08,26,26,0,0,1,10,5.91,23.51,23.51,0,0,1,5.79,9.3A37.16,37.16,0,0,1,618.42,33a37.16,37.16,0,0,1-1.76,11.64,27.8,27.8,0,0,1-5,9.29,23.77,23.77,0,0,1-7.94,6.18,24.2,24.2,0,0,1-10.67,2.27h-4.43c-4.16,0-7.07-1-8.71-2.92a11.78,11.78,0,0,1-2.47-7.87q0-4.94,2.73-7.28A10.22,10.22,0,0,1,587.06,42h2.09a7.17,7.17,0,0,0,5.07-1.69c1.21-1.12,1.82-2.86,1.82-5.2q0-3.9-2.22-5.65a9.94,9.94,0,0,0-6.28-1.75H573.79Z"/><path class="cls-2" d="M650.56,82.52q0,13-12.56,13T625.32,82.78V16.23q0-12.75,12.23-12.74h25.76a43.76,43.76,0,0,1,14.24,2.08,26,26,0,0,1,10,5.91,23.73,23.73,0,0,1,5.79,9.3A37.43,37.43,0,0,1,695.19,33a37.45,37.45,0,0,1-1.76,11.64,27.64,27.64,0,0,1-5,9.29,23.67,23.67,0,0,1-7.94,6.18,24.2,24.2,0,0,1-10.67,2.27h-4.42q-6.24,0-8.72-2.92a11.78,11.78,0,0,1-2.47-7.87q0-4.94,2.73-7.28a10.23,10.23,0,0,1,6.9-2.34h2.08A7.14,7.14,0,0,0,671,40.27c1.22-1.12,1.83-2.86,1.83-5.2,0-2.6-.75-4.48-2.23-5.65a9.92,9.92,0,0,0-6.28-1.75H650.56Z"/><path class="cls-2" d="M727.06,82.91q0,6.24-3.77,9.42a14,14,0,0,1-17.76,0q-3.71-3.18-3.71-9.42V15.58q0-6,3.71-9.23a13.76,13.76,0,0,1,17.76,0q3.76,3.24,3.77,9.23Z"/><path class="cls-2" d="M784.44,15.06q0-5.85,3.58-8.91a12.9,12.9,0,0,1,8.65-3.05,12.55,12.55,0,0,1,8.39,3.05q3.59,3.06,3.58,8.91V82.91a13,13,0,0,1-1,5.33,13.31,13.31,0,0,1-2.67,4,10.89,10.89,0,0,1-3.77,2.46,12,12,0,0,1-4.49.85A13.13,13.13,0,0,1,790.55,94a14.08,14.08,0,0,1-5.2-4.94L761.67,53.79V83.56q0,5.85-3.58,8.91a12.9,12.9,0,0,1-8.65,3,12.31,12.31,0,0,1-8.33-3q-3.51-3.06-3.51-8.91v-68a13.38,13.38,0,0,1,1-5.2,11.67,11.67,0,0,1,2.67-4A12,12,0,0,1,745,3.94a11.67,11.67,0,0,1,4.42-.84,13.84,13.84,0,0,1,6.24,1.49,13.53,13.53,0,0,1,5.21,4.88l23.55,35.22Z"/><path class="cls-2" d="M884.88,82.33q0,6.21-3.71,9.44A13.46,13.46,0,0,1,872,95h-9.24a48.49,48.49,0,0,1-19.9-3.83A41.17,41.17,0,0,1,828.61,81a43.32,43.32,0,0,1-8.52-14.43,49.3,49.3,0,0,1-2.86-16.64,54.08,54.08,0,0,1,2.92-17.81,41,41,0,0,1,8.92-14.81A42.46,42.46,0,0,1,843.9,7.19a53.63,53.63,0,0,1,20.82-3.7H872a13.22,13.22,0,0,1,5.53,1.1,12.09,12.09,0,0,1,4,2.93A13,13,0,0,1,884,11.61a13.62,13.62,0,0,1,.84,4.75,14.16,14.16,0,0,1-.84,4.81,12,12,0,0,1-2.47,4.09,12.65,12.65,0,0,1-4,2.86A13.06,13.06,0,0,1,872,29.23h-9.24a23,23,0,0,0-9.23,1.69,19.67,19.67,0,0,0-6.57,4.5,18,18,0,0,0-4,6.45,22,22,0,0,0-1.3,7.44,26.54,26.54,0,0,0,1,7.5A18,18,0,0,0,846,63.2a16.83,16.83,0,0,0,5.73,4.5,21.14,21.14,0,0,0,8.26,2V54.57q0-5.85,3.71-9.1a12.75,12.75,0,0,1,8.65-3.25,12.9,12.9,0,0,1,8.78,3.25q3.72,3.26,3.71,9.1Z"/></g><g class="cls-1"><path class="cls-2" d="M334.39,217.32q-5.2,0-9.24-5.33l-9.36-12.22V238.9q0,6.1-3.78,9.36a12.93,12.93,0,0,1-8.71,3.25,13.43,13.43,0,0,1-9-3.19q-3.78-3.18-3.77-9.42V172.47a13.93,13.93,0,0,1,1.1-5.65,12.36,12.36,0,0,1,2.93-4.22,12.56,12.56,0,0,1,4.23-2.6,13.94,13.94,0,0,1,5-.91,15.52,15.52,0,0,1,6.76,1.62,16.55,16.55,0,0,1,5.86,4.75l17.95,23,18.09-23a16.68,16.68,0,0,1,5.79-4.75,15.11,15.11,0,0,1,6.7-1.62,14,14,0,0,1,5,.91,13.44,13.44,0,0,1,4.29,2.6,11.84,11.84,0,0,1,3,4.22,13.93,13.93,0,0,1,1.11,5.65V238.9q0,6.24-3.77,9.42a13.45,13.45,0,0,1-9,3.19,13,13,0,0,1-8.78-3.19q-3.72-3.18-3.71-9.42V199.77L343.89,212a13.34,13.34,0,0,1-4.55,4.16A10.92,10.92,0,0,1,334.39,217.32Z"/><path class="cls-2" d="M442,233.31H414.93l-4,10a13.9,13.9,0,0,1-4.82,6.17,11,11,0,0,1-6.24,2,14.81,14.81,0,0,1-5-.85,14.59,14.59,0,0,1-4.36-2.4,12,12,0,0,1-3.12-3.77,10.38,10.38,0,0,1-1.17-4.94,12,12,0,0,1,.91-5.07l31-67.86a15.39,15.39,0,0,1,4-5.45q2.46-2.08,7.67-2.08,5,0,7.48,2.08a13.65,13.65,0,0,1,4,5.58l28.24,67.73a14,14,0,0,1,.91,5.07,10.12,10.12,0,0,1-1.17,4.81,12.63,12.63,0,0,1-3.06,3.77,14.88,14.88,0,0,1-4.36,2.47,14.4,14.4,0,0,1-4.94.91,11.17,11.17,0,0,1-11.19-8.19Zm-19.12-19.89H435.1l-5.6-16.51Z"/><path class="cls-2" d="M508.48,216.41a13.22,13.22,0,0,1-1.3-3.25,14.12,14.12,0,0,1-.52-4.81,11.37,11.37,0,0,1,2.6-7.86,9.08,9.08,0,0,1,7.15-2.93h1.83a7.3,7.3,0,0,0,5.2-1.82q1.95-1.81,1.95-5.72c0-2.34-.65-4-2-4.94s-3.32-1.43-6-1.43H503.66V238q0,13-12.55,13t-12.69-12.74v-66q0-12.74,12.23-12.74H518a36.65,36.65,0,0,1,13.92,2.41,28,28,0,0,1,9.63,6.3,25.18,25.18,0,0,1,5.59,8.91,29.74,29.74,0,0,1,1.82,10.2q0,9.36-4.49,15.86a24.31,24.31,0,0,1-10.86,9.1l12.1,19a16.46,16.46,0,0,1,2.47,7.8A11.18,11.18,0,0,1,547,244.1a12.14,12.14,0,0,1-3.12,4,14.83,14.83,0,0,1-4.43,2.54,14.36,14.36,0,0,1-4.94.91,12.45,12.45,0,0,1-5.92-1.56,11.65,11.65,0,0,1-4.75-4.94Z"/><path class="cls-2" d="M582.9,238.9q0,6.24-3.78,9.42a13.94,13.94,0,0,1-17.75,0q-3.72-3.18-3.71-9.42V171.56q0-6,3.71-9.23a13.78,13.78,0,0,1,17.75,0q3.78,3.25,3.78,9.23v21.58l20.69-29.25a10.26,10.26,0,0,1,4.09-3.77,13.7,13.7,0,0,1,5.66-1q6.25,0,9.7,3.57a12.51,12.51,0,0,1,3.45,9,14,14,0,0,1-.66,4.29,8.73,8.73,0,0,1-2.21,3.64l-21.2,23.92,21.33,27.3a12.56,12.56,0,0,1,3,7.93,12.16,12.16,0,0,1-3.65,9.29,13.24,13.24,0,0,1-9.49,3.45,12.73,12.73,0,0,1-5.4-1.17,10.84,10.84,0,0,1-4.36-3.77l-21-29.25Z"/><path class="cls-2" d="M647.63,251q-12.57,0-12.56-12.72V172.33q0-12.72,12.56-12.72h43q6,0,9.3,3.75a13.64,13.64,0,0,1,0,17.84q-3.31,3.75-9.3,3.75H660.31v8.71h25.24q5.48,0,8.53,3.45a12.35,12.35,0,0,1,0,16.25q-3.06,3.44-8.53,3.44H660.31v8.84h30.32q6,0,9.3,3.7a12.9,12.9,0,0,1,3.32,8.91,13.13,13.13,0,0,1-3.32,9q-3.31,3.76-9.3,3.77Z"/><path class="cls-2" d="M757,238.9q0,6.24-3.77,9.42a13.45,13.45,0,0,1-9,3.19,13,13,0,0,1-8.78-3.19q-3.71-3.18-3.71-9.42V185h-8.85q-6,0-9.3-3.75a13.64,13.64,0,0,1,0-17.84q3.31-3.75,9.3-3.75h42.68q6,0,9.37,3.75a13.46,13.46,0,0,1,0,17.84q-3.39,3.75-9.37,3.75H757Z"/></g></g></g><g id="Layer_2" data-name="Layer 2"><path class="cls-2" d="M109.9,66.48h34.25a1.59,1.59,0,0,1,1.52,1.12l27.89,90.24a1.59,1.59,0,0,0,3,0l30.88-90.33a1.59,1.59,0,0,1,1.5-1.08h24.58a1.59,1.59,0,0,0,1.37-2.41A125,125,0,0,0,15.1,72.5a1.59,1.59,0,0,0,2.46,1.92c6.6-5.48,16.13-9.51,28.77-9.51a87.39,87.39,0,0,1,38.15,8.73,1.59,1.59,0,0,1,.73,2L77.34,94.16a1.59,1.59,0,0,1-2.12.82C52,84.68,33,85.33,33,101.23c0,16.24,34,18.86,47.23,34.92s7.86,58.67-32.48,58.67a187.35,187.35,0,0,1-23.4-1.32A1.59,1.59,0,0,0,22.81,196a124.9,124.9,0,0,0,83.65,54.69,1.59,1.59,0,0,0,1.85-1.57v-181A1.59,1.59,0,0,1,109.9,66.48Z"/><path class="cls-2" d="M214.5,105.69l-26.57,85.74a1.6,1.6,0,0,1-1.52,1.12H162.93a1.59,1.59,0,0,1-1.53-1.14L137.62,111.6a1.59,1.59,0,0,0-3.12.45V250.49a1.6,1.6,0,0,0,1.7,1.6,124.52,124.52,0,0,0,81-37.84,1.62,1.62,0,0,0,.45-1.12v-107A1.59,1.59,0,0,0,214.5,105.69Z"/><path class="cls-2" d="M59.42,160.77c0-14.67-18.33-19.21-37.54-29.86-9-5-13.51-11.84-15.48-18.89a1.59,1.59,0,0,0-3.1.24,125.42,125.42,0,0,0,3.83,49.47,1.63,1.63,0,0,0,.86,1C37.09,176.84,59.42,172,59.42,160.77Z"/></g></svg>