<?xml version="1.0" encoding="utf-8"?>
<!-- Generator: Adobe Illustrator 24.3.0, SVG Export Plug-In . SVG Version: 6.00 Build 0)  -->
<svg version="1.1" id="Layer_1" xmlns="http://www.w3.org/2000/svg" xmlns:xlink="http://www.w3.org/1999/xlink" x="0px" y="0px"
	 viewBox="0 0 456 434.7" style="enable-background:new 0 0 456 434.7;" xml:space="preserve">
<style type="text/css">
	.st0{fill:#00A046;}
	.st1{fill:#00A046;stroke:#F6F6F6;stroke-width:35;stroke-miterlimit:10;}
	.st2{fill:#F6F6F6;}
</style>
<g id="Capa_1">
	<path class="st0" d="M345.6,328.2c-29.4,0-53.2,23.8-53.2,53.2s23.8,53.2,53.2,53.2s53.2-23.8,53.2-53.2l0,0
		C398.3,352.3,374.8,328.2,345.6,328.2z"/>
	<path class="st0" d="M439.3,74.2c-1,0-2.6-0.5-4.1-0.5H112.6l-5.1-34.3C104.3,16.8,84.9-0.1,62,0H20.5C9.2,0,0,9.2,0,20.5
		S9.2,41,20.5,41H62c2.6,0.1,4.7,2.1,5.1,4.6l31.7,216c4.2,27.3,27.6,47.5,55.3,47.6h213c26.6,0,49.7-19,55.3-45.1l33.3-166.4
		C457.7,86.8,450.4,76.3,439.3,74.2C439.4,74.3,439.3,74.2,439.3,74.2z"/>
	<path class="st0" d="M215,378.9c-1-28.2-24.6-50.7-52.7-50.7c-29.3,1.3-52.2,25.9-51.2,55.3c1,28.2,24,50.6,52.2,50.7h1
		C193.5,432.6,216.6,408.1,215,378.9z"/>
</g>
<g id="Layer_2_1_">
	<circle class="st1" cx="251.8" cy="191" r="171.5"/>
</g>
<g id="Layer_3">
	<path class="st2" d="M234.6,209.9l-39.1-39.1c-11.2-11.2-29.3-11.2-40.5,0c0,0,0,0,0,0l0,0c-11.2,11.2-11.2,29.3-0.1,40.5
		c0,0,0,0,0,0l39.1,39l20.3,20.3c11.2,11.2,29.3,11.2,40.5,0c0,0,0,0,0,0l20.3-20.3l75.5-75.5c11.2-11.2,11.2-29.3,0-40.5
		c0,0,0,0,0,0l0,0c-11.2-11.2-29.3-11.2-40.5,0c0,0,0,0,0,0L234.6,209.9z"/>
</g>
</svg>
