<svg height="512pt" viewBox="0 0 512 512" width="512pt" xmlns="http://www.w3.org/2000/svg"><path fill="#fff" d="m81.066406 183.464844c-61.183594 104.960937 29.867188 314.566406 33.722656 323.414062 1.359376 3.109375 4.425782 5.121094 7.816407 5.121094h266.789062c3.390625 0 6.457031-2.011719 7.816407-5.121094 3.898437-8.847656 94.90625-218.453125 33.722656-323.414062-57.171875-97.953125-41.898438-172.371094-41.746094-173.078125.5625-2.527344-.054688-5.171875-1.671875-7.191407-1.621094-2.019531-4.066406-3.195312-6.65625-3.195312h-249.71875c-2.585937 0-5.03125 1.171875-6.648437 3.183594-1.621094 2.011718-2.242188 4.652344-1.6875 7.175781.160156.734375 15.433593 75.152344-41.738282 173.105469zm47.199219 311.46875c-10.128906-24.507813-52.429687-132.4375-51.148437-222.4375 35.421874-2.210938 94.378906-.914063 123.304687 16.433594 8.125 4.847656 15.410156 9.003906 22.09375 12.671874.09375.246094.078125.511719.195313.761719 10.367187 23.367188 18.695312 47.585938 24.902343 72.386719-.0625.234375-.113281.476562-.148437.714844v119.46875zm127.734375-152.660156c-4.019531-12.648438-7.851562-23.109376-10.929688-30.917969 7.191407 1.621093 14.65625 1.621093 21.851563 0-3.078125 7.792969-6.910156 18.277343-10.921875 30.917969zm127.734375 152.660156h-119.199219v-119.46875c-.035156-.238282-.085937-.480469-.148437-.714844 6.203125-24.800781 14.53125-49.019531 24.894531-72.386719.117188-.25.101562-.503906.195312-.753906 6.382813-3.480469 13.75-7.710937 22.101563-12.6875 32.296875-19.378906 98.132813-17.851563 123.28125-16.453125 1.289063 89.984375-40.996094 197.949219-51.125 222.464844zm50.261719-239.609375c-30.292969-1.621094-95.835938-2.242188-131.171875 18.945312-10.289063 6.144531-19.105469 11.144531-26.457031 15l-.613282.335938-1.988281 1.023437c-.808594.417969-1.578125.851563-2.515625 1.269532-9.625 4.824218-20.960938 4.824218-30.585938 0l-1.421874-.707032c-1.425782-.707031-2.980469-1.476562-4.585938-2.339844-7.40625-3.984374-15.988281-8.882812-25.503906-14.554687-36.222656-21.710937-104.867188-20.371094-131.167969-18.917969 1.179687-22.191406 7.277344-43.835937 17.851563-63.378906.746093-1.269531 1.367187-2.492188 2.085937-3.753906 11.664063 1.984375 23.027344 5.445312 33.816406 10.308594 3.34375 1.355468 6.664063 2.695312 9.949219 3.941406 5.871094 2.234375 11.742188 4.609375 17.636719 6.988281 12.589843 5.121094 25.601562 10.359375 38.835937 14.269531 18.855469 4.863282 38.292969 7.097656 57.761719 6.644532h.15625c19.460937.464843 38.898437-1.761719 57.753906-6.613282 13.242188-3.90625 26.253907-9.171875 38.84375-14.265625 5.894531-2.382812 11.765625-4.753906 17.636719-6.988281 3.285156-1.246094 6.605469-2.5625 9.957031-3.945312 10.78125-4.859376 22.140625-8.324219 33.800781-10.304688.71875 1.261719 1.339844 2.480469 2.082032 3.753906 10.554687 19.515625 16.652344 41.132813 17.84375 63.289063zm-292.972656-238.257813h229.953124c-2.421874 22.84375-3.234374 81.066406 34.449219 155.179688-10.824219 2.53125-21.390625 6.054687-31.570312 10.519531-3.234375 1.308594-6.445313 2.5625-9.609375 3.808594-5.972656 2.269531-11.949219 4.699219-17.988282 7.125-12.210937 4.941406-24.832031 10.042969-37.28125 13.71875-17.308593 4.367187-35.132812 6.359375-52.976562 5.914062-17.851562.445313-35.683594-1.542969-53-5.914062-12.441406-3.675781-25.0625-8.777344-37.273438-13.71875-5.972656-2.425781-12-4.855469-17.988281-7.125-3.167969-1.203125-6.375-2.5-9.609375-3.808594-10.179687-4.464844-20.75-7.988281-31.574218-10.527344 37.703124-74.105469 36.890624-132.328125 34.46875-155.171875zm0 0"/><path fill="#fff" d="m256 162.132812c14.136719 0 25.601562-11.460937 25.601562-25.597656 0-4.714844-3.820312-8.535156-8.535156-8.535156-4.710937 0-8.53125 3.820312-8.53125 8.535156 0 4.710938-3.824218 8.53125-8.535156 8.53125s-8.535156-3.820312-8.535156-8.53125c0-4.714844-3.820313-8.535156-8.53125-8.535156-4.714844 0-8.535156 3.820312-8.535156 8.535156 0 14.136719 11.464843 25.597656 25.601562 25.597656zm0 0"/><path fill="#fff" d="m8.535156 93.867188h34.132813v17.066406c0 3.308594 1.914062 6.320312 4.914062 7.722656 2.996094 1.40625 6.535157.949219 9.078125-1.167969l51.203125-42.667969c1.941407-1.621093 3.066407-4.023437 3.066407-6.554687s-1.125-4.929687-3.066407-6.550781l-51.203125-42.667969c-2.542968-2.117187-6.082031-2.574219-9.078125-1.171875-3 1.402344-4.914062 4.414062-4.914062 7.726562v17.066407h-34.132813c-4.714844 0-8.535156 3.820312-8.535156 8.53125v34.132812c0 4.714844 3.820312 8.535157 8.535156 8.535157zm8.53125-34.132813h34.132813c4.714843 0 8.535156-3.820313 8.535156-8.535156v-7.378907l29.335937 24.445313-29.335937 24.449219v-7.382813c0-4.710937-3.820313-8.53125-8.535156-8.53125h-34.132813zm0 0"/><path fill="#fff" d="m503.464844 42.667969h-34.132813v-17.066407c.003907-3.316406-1.914062-6.328124-4.914062-7.734374s-6.542969-.945313-9.085938 1.179687l-51.203125 42.667969c-1.941406 1.621094-3.066406 4.019531-3.066406 6.550781s1.125 4.933594 3.066406 6.554687l51.203125 42.667969c2.542969 2.121094 6.085938 2.582031 9.085938 1.179688 3-1.40625 4.917969-4.421875 4.914062-7.734375v-17.066406h34.132813c4.714844 0 8.535156-3.820313 8.535156-8.535157v-34.132812c0-4.710938-3.820312-8.53125-8.535156-8.53125zm-8.53125 34.132812h-34.132813c-4.714843 0-8.535156 3.820313-8.535156 8.53125v7.382813l-29.328125-24.449219 29.328125-24.445313v7.378907c0 4.714843 3.820313 8.535156 8.535156 8.535156h34.132813zm0 0"/></svg>